<svg width="46" height="14" viewBox="0 0 46 14" version="1.1" xmlns="http://www.w3.org/2000/svg" xmlns:xlink="http://www.w3.org/1999/xlink">
<title>add-to</title>
<desc>Created using Figma</desc>
<g id="Canvas" transform="translate(432 3)">
<g id="add-to">
<g id="addto-hover">
<use xlink:href="#path0_fill" transform="translate(-400 -3)" fill="#868686"/>
</g>
<g id="addto-hover">
<use xlink:href="#path1_fill" transform="translate(-416 -3)" fill="#6FCF97"/>
</g>
<g id="mark">
<use xlink:href="#path2_stroke" transform="translate(-431 -1)" fill="#6FCF97"/>
</g>
</g>
</g>
<defs>
<path id="path0_fill" fill-rule="evenodd" d="M 8 6L 8 0L 6 0L 6 6L 0 6L 0 8L 6 8L 6 14L 8 14L 8 8L 14 8L 14 6L 8 6Z"/>
<path id="path1_fill" fill-rule="evenodd" d="M 8 6L 8 0L 6 0L 6 6L 0 6L 0 8L 6 8L 6 14L 8 14L 8 8L 14 8L 14 6L 8 6Z"/>
<path id="path2_stroke" d="M 5 10L 4.42654 10.8192L 5.24577 11.3927L 5.81923 10.5735L 5 10ZM -0.573462 7.31923L 4.42654 10.8192L 5.57346 9.18077L 0.573462 5.68077L -0.573462 7.31923ZM 5.81923 10.5735L 12.8192 0.573462L 11.1808 -0.573462L 4.18077 9.42654L 5.81923 10.5735Z"/>
</defs>
</svg>
