<svg width="18" height="18" viewBox="0 0 18 18" version="1.1" xmlns="http://www.w3.org/2000/svg" xmlns:xlink="http://www.w3.org/1999/xlink">
<title>addto-active</title>
<desc>Created using Figma</desc>
<g id="Canvas" transform="translate(52 5)">
<g id="addto-active">
<g id="Ellipse 2">
<use xlink:href="#path0_fill" transform="translate(-52 -5)" fill="#6FCF97"/>
</g>
<g id="Union">
<use xlink:href="#path1_fill" transform="translate(-50 -3)" fill="#FFFFFF"/>
</g>
</g>
</g>
<defs>
<path id="path0_fill" d="M 18 9C 18 13.9706 13.9706 18 9 18C 4.02944 18 0 13.9706 0 9C 0 4.02944 4.02944 0 9 0C 13.9706 0 18 4.02944 18 9Z"/>
<path id="path1_fill" fill-rule="evenodd" d="M 8 6L 8 0L 6 0L 6 6L 0 6L 0 8L 6 8L 6 14L 8 14L 8 8L 14 8L 14 6L 8 6Z"/>
</defs>
</svg>
