<svg width="24" height="24" viewBox="0 0 24 24" version="1.1" xmlns="http://www.w3.org/2000/svg" xmlns:xlink="http://www.w3.org/1999/xlink">
<title>loop</title>
<desc>Created using Figma</desc>
<g id="Canvas" transform="translate(-827 455)">
<g id="loop">
<g id="Ellipse 4">
<use xlink:href="#path0_fill" transform="translate(827 -455)" fill="#FFFFFF"/>
</g>
<g id="Group">
<g id="Vector">
<use xlink:href="#path1_fill" transform="translate(833 -449)" fill="#828282"/>
</g>
</g>
</g>
</g>
<defs>
<path id="path0_fill" d="M 24 12C 24 18.6274 18.6274 24 12 24C 5.37258 24 0 18.6274 0 12C 0 5.37258 5.37258 0 12 0C 18.6274 0 24 5.37258 24 12Z"/>
<path id="path1_fill" d="M 11.8962 11.388L 8.97938 8.47184C 9.76181 7.57251 10.2355 6.39911 10.2355 5.11663C 10.2355 2.29357 7.93879 0 5.11776 0C 2.29408 0 1.98286e-11 2.29623 1.98286e-11 5.11663C 1.98286e-11 7.93703 2.29674 10.2333 5.11776 10.2333C 6.40053 10.2333 7.57419 9.75965 8.47372 8.97738L 11.3906 11.8936C 11.4597 11.9627 11.5529 12 11.6434 12C 11.7339 12 11.827 11.9654 11.8962 11.8936C 12.0346 11.7552 12.0346 11.5264 11.8962 11.388ZM 0.715902 5.11663C 0.715902 2.69002 2.69062 0.718404 5.1151 0.718404C 7.54225 0.718404 9.5143 2.69268 9.5143 5.11663C 9.5143 7.54058 7.54225 9.51752 5.1151 9.51752C 2.69062 9.51752 0.715902 7.54324 0.715902 5.11663Z"/>
</defs>
</svg>
