<svg width="24" height="24" viewBox="0 0 24 24" version="1.1" xmlns="http://www.w3.org/2000/svg" xmlns:xlink="http://www.w3.org/1999/xlink">
<title>profile</title>
<desc>Created using Figma</desc>
<g id="Canvas" transform="translate(-799 455)">
<g id="profile">
<g id="Ellipse 4">
<use xlink:href="#path0_fill" transform="translate(799 -455)" fill="#F2F2F2"/>
</g>
<g id="Capa 1">
<g id="Group">
<g id="Group">
<g id="Vector">
<use xlink:href="#path1_fill" transform="translate(807.443 -451)" fill="#333333"/>
</g>
<g id="Vector">
<use xlink:href="#path2_fill" transform="translate(804 -442.41)" fill="#333333"/>
</g>
</g>
</g>
</g>
</g>
</g>
<defs>
<path id="path0_fill" d="M 24 12C 24 18.6274 18.6274 24 12 24C 5.37258 24 0 18.6274 0 12C 0 5.37258 5.37258 0 12 0C 18.6274 0 24 5.37258 24 12Z"/>
<path id="path1_fill" d="M 3.4976 8.62125C 3.51464 8.62125 3.53168 8.62125 3.55213 8.62125C 3.55895 8.62125 3.56577 8.62125 3.57258 8.62125C 3.58281 8.62125 3.59644 8.62125 3.60667 8.62125C 4.60531 8.60468 5.41309 8.26341 6.00956 7.61069C 7.32177 6.17271 7.10364 3.7076 7.07978 3.47235C 6.99457 1.70636 6.13567 0.861462 5.42673 0.467178C 4.89843 0.172292 4.28152 0.0132533 3.59303 0L 3.56917 0C 3.56577 0 3.55895 0 3.55554 0L 3.53509 0C 3.15676 0 2.41374 0.0596397 1.7014 0.453924C 0.985641 0.848209 0.113102 1.6931 0.0278928 3.47235C 0.00403433 3.7076 -0.2141 6.17271 1.09812 7.61069C 1.69117 8.26341 2.49895 8.60468 3.4976 8.62125ZM 0.937924 3.55519C 0.937924 3.54525 0.941332 3.53531 0.941332 3.52868C 1.05381 1.15303 2.78866 0.897909 3.53168 0.897909L 3.54532 0.897909C 3.55213 0.897909 3.56236 0.897909 3.57258 0.897909C 4.49284 0.917788 6.05727 1.28225 6.16293 3.52868C 6.16293 3.53862 6.16293 3.54856 6.16634 3.55519C 6.16975 3.57838 6.40833 5.83144 5.32448 7.0176C 4.89502 7.48809 4.32242 7.72003 3.56917 7.72665C 3.56236 7.72665 3.55895 7.72665 3.55213 7.72665C 3.54532 7.72665 3.54191 7.72665 3.53509 7.72665C 2.78525 7.72003 2.20924 7.48809 1.7832 7.0176C 0.702747 5.83806 0.934516 3.57507 0.937924 3.55519Z"/>
<path id="path2_fill" d="M 13.999 4.1203C 13.999 4.11699 13.999 4.11368 13.999 4.11036C 13.999 4.08386 13.9956 4.05735 13.9956 4.02753C 13.9752 3.37149 13.9309 1.83743 12.4517 1.34706C 12.4414 1.34374 12.4278 1.34043 12.4176 1.33712C 10.8804 0.956087 9.60227 0.0946241 9.58863 0.0846841C 9.38072 -0.0577885 9.09442 -0.00808811 8.94786 0.194024C 8.8013 0.396136 8.85243 0.674454 9.06034 0.816927C 9.11828 0.856687 10.4748 1.77448 12.1722 2.19858C 12.9663 2.47359 13.0549 3.2986 13.0788 4.05404C 13.0788 4.08386 13.0788 4.11036 13.0822 4.13687C 13.0856 4.43507 13.0652 4.89562 13.0106 5.16068C 12.4585 5.46551 10.2942 6.51914 7.00169 6.51914C 3.72285 6.51914 1.54491 5.4622 0.989351 5.15737C 0.934817 4.89231 0.910959 4.43175 0.917775 4.13356C 0.917775 4.10705 0.921184 4.08054 0.921184 4.05072C 0.945042 3.29529 1.03366 2.47027 1.82781 2.19527C 3.52517 1.77116 4.88169 0.85006 4.93964 0.813614C 5.14755 0.671141 5.19867 0.392823 5.05211 0.190711C 4.90555 -0.0114016 4.61925 -0.061101 4.41134 0.0813716C 4.39771 0.0913116 3.12639 0.952773 1.5824 1.3338C 1.56877 1.33712 1.55855 1.34043 1.54832 1.34374C 0.0690947 1.83743 0.0247862 3.37149 0.00433602 4.02422C 0.00433602 4.05404 0.00433594 4.08054 0.000927585 4.10705C 0.000927585 4.11036 0.000927585 4.11368 0.000927585 4.11699C -0.00248077 4.28928 -0.00588906 5.17394 0.174754 5.61792C 0.208837 5.70407 0.270188 5.77696 0.351988 5.82666C 0.454239 5.89293 2.90485 7.41043 7.0051 7.41043C 11.1054 7.41043 13.556 5.88961 13.6582 5.82666C 13.7366 5.77696 13.8014 5.70407 13.8354 5.61792C 14.0059 5.17725 14.0025 4.2926 13.999 4.1203Z"/>
</defs>
</svg>
